<?xml version="1.0" ?><svg id="social_x5F_emoji_x5F_giggles" style="enable-background:new 0 0 32 32;" version="1.1" viewBox="0 0 32 32" xml:space="preserve" xmlns="http://www.w3.org/2000/svg" xmlns:xlink="http://www.w3.org/1999/xlink"><g><g><g><path d="M16,25c-2.956,0-5.606-1.875-6.594-4.666c-0.184-0.521,0.088-1.093,0.609-1.276     c0.519-0.186,1.091,0.087,1.277,0.608C11.998,21.66,13.89,23,16,23s4.002-1.34,4.708-3.334c0.185-0.521,0.757-0.792,1.277-0.608     c0.521,0.184,0.793,0.756,0.609,1.276C21.606,23.125,18.956,25,16,25z" style=""/></g></g><g><path d="M16,32C7.178,32,0,24.822,0,16S7.178,0,16,0s16,7.178,16,16S24.822,32,16,32z M16,2    C8.28,2,2,8.28,2,16s6.28,14,14,14s14-6.28,14-14S23.72,2,16,2z" style=""/></g><g><path d="M13,14c-0.256,0-0.512-0.098-0.707-0.293c-0.988-0.988-2.598-0.988-3.586,0    c-0.391,0.391-1.023,0.391-1.414,0s-0.391-1.023,0-1.414c1.769-1.77,4.646-1.77,6.414,0c0.391,0.391,0.391,1.023,0,1.414    C13.512,13.902,13.256,14,13,14z" style=""/></g><g><path d="M24,14c-0.256,0-0.512-0.098-0.707-0.293c-0.988-0.988-2.598-0.988-3.586,0    c-0.391,0.391-1.023,0.391-1.414,0s-0.391-1.023,0-1.414c1.769-1.77,4.646-1.77,6.414,0c0.391,0.391,0.391,1.023,0,1.414    C24.512,13.902,24.256,14,24,14z" style=""/></g></g></svg>